<svg width="32" height="32" viewBox="0 0 32 32" xmlns="http://www.w3.org/2000/svg">
  <!-- AI Robot Head -->
  <rect x="6" y="4" width="20" height="16" rx="4" ry="4" fill="#4A90E2" stroke="#2E5C8A" stroke-width="1"/>
  
  <!-- Robot Eyes -->
  <circle cx="12" cy="10" r="3" fill="#FFFFFF"/>
  <circle cx="20" cy="10" r="3" fill="#FFFFFF"/>
  <circle cx="12" cy="10" r="1.8" fill="#2E5C8A"/>
  <circle cx="20" cy="10" r="1.8" fill="#2E5C8A"/>
  
  <!-- Eye Highlights -->
  <circle cx="12.5" cy="9.5" r="0.6" fill="#FFFFFF"/>
  <circle cx="20.5" cy="9.5" r="0.6" fill="#FFFFFF"/>
  
  <!-- Robot Mouth/Code Symbol -->
  <rect x="10" y="14" width="12" height="2" rx="1" fill="#2E5C8A"/>
  
  <!-- Code Brackets -->
  <path d="M2 12 L4 16 L2 20" stroke="#4A90E2" stroke-width="2" fill="none" stroke-linecap="round" stroke-linejoin="round"/>
  <path d="M30 12 L28 16 L30 20" stroke="#4A90E2" stroke-width="2" fill="none" stroke-linecap="round" stroke-linejoin="round"/>
  
  <!-- Code Lines -->
  <line x1="8" y1="24" x2="14" y2="24" stroke="#4A90E2" stroke-width="1.5" stroke-linecap="round"/>
  <line x1="18" y1="24" x2="24" y2="24" stroke="#4A90E2" stroke-width="1.5" stroke-linecap="round"/>
  <line x1="10" y1="27" x2="22" y2="27" stroke="#4A90E2" stroke-width="1.5" stroke-linecap="round"/>
  <line x1="12" y1="30" x2="20" y2="30" stroke="#4A90E2" stroke-width="1.5" stroke-linecap="round"/>
  
  <!-- AI Antenna -->
  <circle cx="16" cy="2" r="1.5" fill="#4A90E2"/>
  <line x1="16" y1="3.5" x2="16" y2="4" stroke="#2E5C8A" stroke-width="1"/>
  
  <!-- Additional Tech Details -->
  <rect x="8" y="17" width="2" height="1" fill="#2E5C8A"/>
  <rect x="22" y="17" width="2" height="1" fill="#2E5C8A"/>
  
  <!-- Review Check Mark -->
  <path d="M14 11 L15.5 12.5 L18 10" stroke="#00C851" stroke-width="1.2" fill="none" stroke-linecap="round" stroke-linejoin="round"/>
</svg>